<svg xmlns="http://www.w3.org/2000/svg" width="980" height="520" viewBox="0 0 980 520">
<rect width="100%" height="100%" fill="white"/>
<text x="490.0" y="32" text-anchor="middle" font-family="Arial" font-size="22">RAM usage comparison</text>
<line x1="72" y1="448" x2="908" y2="448" stroke="#333"/>
<line x1="72" y1="72" x2="72" y2="448" stroke="#333"/>
<rect x="98.47333333333336" y="106.57463877113815" width="86.38666666666667" height="341.42536122886185" fill="#1f77b4"/>
<text x="141.66666666666669" y="98.57463877113815" text-anchor="middle" font-family="Arial" font-size="12">1593.73</text>
<text x="141.66666666666669" y="466" text-anchor="middle" font-family="Arial" font-size="11">benchmark_uc-20</text>
<rect x="237.80666666666667" y="122.70190072473673" width="86.38666666666667" height="325.29809927526327" fill="#1f77b4"/>
<text x="281.0" y="114.70190072473673" text-anchor="middle" font-family="Arial" font-size="12">1518.45</text>
<text x="281.0" y="466" text-anchor="middle" font-family="Arial" font-size="11">benders-20</text>
<rect x="377.14" y="107.96927845389484" width="86.38666666666667" height="340.03072154610516" fill="#1f77b4"/>
<text x="420.3333333333333" y="99.96927845389484" text-anchor="middle" font-family="Arial" font-size="12">1587.22</text>
<text x="420.3333333333333" y="466" text-anchor="middle" font-family="Arial" font-size="11">ccg-20</text>
<rect x="516.4733333333334" y="230.03774100916175" width="86.38666666666667" height="217.96225899083825" fill="#1f77b4"/>
<text x="559.6666666666667" y="222.03774100916175" text-anchor="middle" font-family="Arial" font-size="12">1017.42</text>
<text x="559.6666666666667" y="466" text-anchor="middle" font-family="Arial" font-size="11">benchmark_uc-50</text>
<rect x="655.8066666666666" y="122.20488627558228" width="86.38666666666667" height="325.7951137244177" fill="#1f77b4"/>
<text x="699.0" y="114.20488627558228" text-anchor="middle" font-family="Arial" font-size="12">1520.77</text>
<text x="699.0" y="466" text-anchor="middle" font-family="Arial" font-size="11">benders-50</text>
<rect x="795.14" y="72.0" width="86.38666666666667" height="376.0" fill="#1f77b4"/>
<text x="838.3333333333334" y="64.0" text-anchor="middle" font-family="Arial" font-size="12">1755.12</text>
<text x="838.3333333333334" y="466" text-anchor="middle" font-family="Arial" font-size="11">ccg-50</text>
<text x="18" y="260.0" text-anchor="middle" transform="rotate(-90 18,260.0)" font-family="Arial" font-size="13">MB</text>
</svg>
