<svg xmlns="http://www.w3.org/2000/svg" width="980" height="520" viewBox="0 0 980 520">
<rect width="100%" height="100%" fill="white"/>
<text x="490.0" y="32" text-anchor="middle" font-family="Arial" font-size="22">RAM usage comparison</text>
<line x1="72" y1="448" x2="908" y2="448" stroke="#333"/>
<line x1="72" y1="72" x2="72" y2="448" stroke="#333"/>
<rect x="98.47333333333336" y="136.68099586718267" width="86.38666666666667" height="311.3190041328173" fill="#1f77b4"/>
<text x="141.66666666666669" y="128.68099586718267" text-anchor="middle" font-family="Arial" font-size="12">1576.69</text>
<text x="141.66666666666669" y="466" text-anchor="middle" font-family="Arial" font-size="11">benchmark_uc-20</text>
<rect x="237.80666666666667" y="166.75475641584438" width="86.38666666666667" height="281.2452435841556" fill="#1f77b4"/>
<text x="281.0" y="158.75475641584438" text-anchor="middle" font-family="Arial" font-size="12">1424.38</text>
<text x="281.0" y="466" text-anchor="middle" font-family="Arial" font-size="11">benders-20</text>
<rect x="377.14" y="151.94593203694853" width="86.38666666666667" height="296.05406796305147" fill="#1f77b4"/>
<text x="420.3333333333333" y="143.94593203694853" text-anchor="middle" font-family="Arial" font-size="12">1499.38</text>
<text x="420.3333333333333" y="466" text-anchor="middle" font-family="Arial" font-size="11">ccg-20</text>
<rect x="516.4733333333334" y="173.7366234830145" width="86.38666666666667" height="274.2633765169855" fill="#1f77b4"/>
<text x="559.6666666666667" y="165.7366234830145" text-anchor="middle" font-family="Arial" font-size="12">1389.02</text>
<text x="559.6666666666667" y="466" text-anchor="middle" font-family="Arial" font-size="11">benchmark_uc-50</text>
<rect x="655.8066666666666" y="72.0" width="86.38666666666667" height="376.0" fill="#1f77b4"/>
<text x="699.0" y="64.0" text-anchor="middle" font-family="Arial" font-size="12">1904.27</text>
<text x="699.0" y="466" text-anchor="middle" font-family="Arial" font-size="11">benders-50</text>
<rect x="795.14" y="99.19097606956996" width="86.38666666666667" height="348.80902393043004" fill="#1f77b4"/>
<text x="838.3333333333334" y="91.19097606956996" text-anchor="middle" font-family="Arial" font-size="12">1766.56</text>
<text x="838.3333333333334" y="466" text-anchor="middle" font-family="Arial" font-size="11">ccg-50</text>
<text x="18" y="260.0" text-anchor="middle" transform="rotate(-90 18,260.0)" font-family="Arial" font-size="13">MB</text>
</svg>
