<svg xmlns="http://www.w3.org/2000/svg" width="980" height="520" viewBox="0 0 980 520">
<rect width="100%" height="100%" fill="white"/>
<text x="490.0" y="32" text-anchor="middle" font-family="Arial" font-size="22">Gap convergence</text>
<line x1="64" y1="456" x2="916" y2="456" stroke="#333"/>
<line x1="64" y1="64" x2="64" y2="456" stroke="#333"/>
<polyline points="64.0,64.14 277.0,112.43 490.0,116.04 703.0,116.51 916.0,120.12" fill="none" stroke="#1f77b4" stroke-width="2"/>
<text x="924" y="82" font-family="Arial" font-size="13" fill="#1f77b4">benders-20</text>
<polyline points="64.0,64.14 277.0,168.86 490.0,172.5 703.0,172.98 916.0,176.62" fill="none" stroke="#d62728" stroke-width="2"/>
<text x="924" y="100" font-family="Arial" font-size="13" fill="#d62728">benders-50</text>
<polyline points="64.0,64.0 277.0,380.26 490.0,410.42 703.0,426.8 916.0,426.8" fill="none" stroke="#2ca02c" stroke-width="2"/>
<text x="924" y="118" font-family="Arial" font-size="13" fill="#2ca02c">ccg-20</text>
<polyline points="64.0,328.53 277.0,404.87 490.0,456.0 703.0,456.0 916.0,456.0" fill="none" stroke="#9467bd" stroke-width="2"/>
<text x="924" y="136" font-family="Arial" font-size="13" fill="#9467bd">ccg-50</text>
<text x="490.0" y="502" text-anchor="middle" font-family="Arial" font-size="13">iteration / time period</text>
<text x="18" y="260.0" text-anchor="middle" transform="rotate(-90 18,260.0)" font-family="Arial" font-size="13">value</text>
</svg>
