<svg xmlns="http://www.w3.org/2000/svg" width="980" height="520" viewBox="0 0 980 520">
<rect width="100%" height="100%" fill="white"/>
<text x="490.0" y="32" text-anchor="middle" font-family="Arial" font-size="22">Gap convergence</text>
<line x1="64" y1="456" x2="916" y2="456" stroke="#333"/>
<line x1="64" y1="64" x2="64" y2="456" stroke="#333"/>
<polyline points="64.0,456.0" fill="none" stroke="#1f77b4" stroke-width="2"/>
<text x="924" y="82" font-family="Arial" font-size="13" fill="#1f77b4">benchmark_uc-2</text>
<polyline points="64.0,456.0" fill="none" stroke="#d62728" stroke-width="2"/>
<text x="924" y="100" font-family="Arial" font-size="13" fill="#d62728">benchmark_uc-6</text>
<polyline points="64.0,82.23 101.04,82.91 138.09,82.91 175.13,82.91 212.17,84.51 249.22,288.72 286.26,288.91 323.3,288.91 360.35,289.09 397.39,289.1 434.43,289.21 471.48,289.39 508.52,289.39 545.57,289.56 582.61,289.57 619.65,289.58 656.7,289.59 693.74,289.64 730.78,289.66 767.83,292.29 804.87,299.52 841.91,299.52 878.96,451.46 916.0,64.0" fill="none" stroke="#2ca02c" stroke-width="2"/>
<text x="924" y="118" font-family="Arial" font-size="13" fill="#2ca02c">benders-2</text>
<polyline points="64.0,82.23 101.04,83.23 138.09,83.72 175.13,83.72 212.17,84.15 249.22,84.15 286.26,84.15 323.3,93.46 360.35,391.71 397.39,391.88 434.43,423.93 471.48,431.57 508.52,453.51 545.57,455.76" fill="none" stroke="#9467bd" stroke-width="2"/>
<text x="924" y="136" font-family="Arial" font-size="13" fill="#9467bd">benders-6</text>
<polyline points="64.0,113.11" fill="none" stroke="#ff7f0e" stroke-width="2"/>
<text x="924" y="154" font-family="Arial" font-size="13" fill="#ff7f0e">ccg-2</text>
<polyline points="64.0,82.15 101.04,392.28 138.09,398.81" fill="none" stroke="#17becf" stroke-width="2"/>
<text x="924" y="172" font-family="Arial" font-size="13" fill="#17becf">ccg-6</text>
<text x="490.0" y="502" text-anchor="middle" font-family="Arial" font-size="13">iteration / time period</text>
<text x="18" y="260.0" text-anchor="middle" transform="rotate(-90 18,260.0)" font-family="Arial" font-size="13">value</text>
</svg>
